<svg width="40" height="40" viewBox="0 0 40 40" fill="none" xmlns="http://www.w3.org/2000/svg">
<rect x="0.5" y="0.5" width="39" height="39" rx="4.5" stroke="#E0E0E0"/>
<path d="M30.6191 4.55961C30.6201 4.55961 30.6206 4.55961 30.6217 4.55961C30.6228 4.55961 30.6239 4.55859 30.6249 4.55859L30.6191 4.55961Z" fill="#7B00FF"/>
<path d="M30.6265 4.5579C30.6254 4.5579 30.6249 4.55845 30.6238 4.55845L30.6345 4.55688L30.6265 4.5579Z" fill="#7B00FF"/>
<path d="M33.1783 6.04821L32.1114 5.04096L32.1106 5.03988C31.7613 4.71154 31.336 4.53464 30.8991 4.53418C30.8111 4.53464 30.7179 4.54149 30.6213 4.55942C30.0955 4.65052 29.621 4.99571 29.3029 5.52042L20.5874 19.8921L20.5737 19.9173C20.0957 20.7967 19.6696 21.4161 19.2229 21.8676C18.7749 22.3187 18.2996 22.6271 17.6392 22.8729C17.0378 23.0944 16.5119 23.2076 16.0486 23.207C15.6648 23.2065 15.3228 23.1339 14.9838 22.9755C14.6453 22.8161 14.305 22.5677 13.9424 22.1824L13.7864 22.0156L13.7856 22.0151C13.4441 21.6509 13.0153 21.4667 12.5913 21.4673C12.1667 21.4667 11.7359 21.6519 11.3939 22.0182L5.61631 28.204C5.11063 28.7493 4.72975 29.4387 4.45231 30.1528C4.17906 30.8724 4.00469 31.6044 4 32.3381C4.00038 32.4449 4.00425 32.5533 4.01412 32.6639C4.071 33.3175 4.21375 33.8102 4.37238 34.1564C4.53013 34.5032 4.70025 34.6979 4.78356 34.7759L5.01994 35H19.0169C19.865 34.9995 20.6588 34.6642 21.3333 34.139C22.0091 33.6116 22.5751 32.8932 22.991 32.0681L22.9944 32.0617L27.9491 21.7972L28.277 35H33.1394L33.0612 33.8338C33.0373 33.4727 33.0252 33.0807 33.0252 32.6649C33.0244 31.0793 33.1975 29.1473 33.463 27.1632C33.8601 24.1844 34.4611 21.0794 34.9621 18.728C35.2126 17.5518 35.4379 16.5634 35.6007 15.8703C35.682 15.5235 35.7474 15.2509 35.7927 15.0657C35.8149 14.973 35.8324 14.9019 35.844 14.8547L35.8615 14.7846L35.8774 14.722L35.8867 14.6578C35.9629 14.1347 36 13.6094 36 13.0895C36 10.3591 34.9754 7.74445 33.1783 6.04821ZM32.7359 20.7978C32.3729 22.6709 32.0096 24.758 31.7352 26.8137C31.4612 28.8709 31.2747 30.8924 31.2743 32.6649C31.2743 32.727 31.2795 32.7828 31.2799 32.8444H29.9753L29.6953 21.572H29.6936C29.6817 20.6473 29.182 19.8384 28.4565 19.5847C28.3005 19.5295 28.1427 19.5037 27.9889 19.5037C27.4088 19.5032 26.8548 19.8694 26.5385 20.5005L26.5351 20.5068L21.5 30.9382C21.2229 31.4882 20.8336 31.9786 20.3976 32.3171C19.9594 32.6576 19.4845 32.8449 19.0168 32.8444H5.818C5.79406 32.7407 5.771 32.6071 5.75475 32.4312L5.75087 32.3381C5.74656 32.0765 5.84319 31.5624 6.03381 31.0771C6.22062 30.5871 6.49719 30.114 6.76519 29.8309L12.5428 23.645L12.5911 23.6229L12.6402 23.6455L12.7966 23.8123C13.2899 24.3381 13.8114 24.7328 14.3603 24.9896C14.9083 25.2475 15.4777 25.3633 16.0484 25.3627C16.74 25.3622 17.4312 25.1991 18.1408 24.938C18.9795 24.6312 19.7049 24.1733 20.335 23.5323C20.9578 22.9013 21.4819 22.114 22.006 21.1556L30.7059 6.80976C30.7444 6.74612 30.8021 6.70396 30.8662 6.69295L30.873 6.69195L30.8991 6.69034C30.9509 6.68987 31.0034 6.71142 31.047 6.75243L31.0462 6.75136L32.1131 7.75868C33.4733 9.04225 34.2491 11.0227 34.2491 13.0894C34.2491 13.4678 34.2214 13.8499 34.1684 14.2308C34.0513 14.704 33.3954 17.3928 32.7359 20.7978Z" fill="#7B00FF"/>
<path d="M28.4549 19.5837C28.4554 19.5837 28.4565 19.5843 28.457 19.5848C28.4581 19.5848 28.4597 19.5848 28.4608 19.5854L28.4549 19.5837Z" fill="#7B00FF"/>
</svg>
