<svg width="40" height="40" viewBox="0 0 40 40" fill="none" xmlns="http://www.w3.org/2000/svg">
<rect x="0.5" y="0.5" width="39" height="39" rx="4.5" stroke="#E0E0E0"/>
<path d="M21.3129 10.7826L20.7267 11.3688L25.7267 11.7988L28.7342 8.7913C29.2029 8.32255 30.0629 7.6188 31.3129 6.83755C32.5629 6.0563 33.3829 5.8213 33.6954 6.1338C34.5554 6.9938 33.6954 8.67255 31.1167 11.2126L28.1479 14.1813L28.5779 19.1813L29.1642 18.6338C29.6329 18.1263 30.1404 18.1263 30.5317 18.5163C31.0004 18.9851 30.8054 19.6488 29.8679 20.5863L28.9304 21.5626L29.3992 24.9226L30.0629 24.2188C30.4929 23.7501 30.9617 23.7501 31.3917 24.1401C31.8604 24.6088 31.7829 25.1951 31.1567 25.8201L29.7504 27.2263C30.2979 30.9763 30.3754 33.0863 29.9454 33.5151C29.7504 33.6713 29.4767 33.8276 29.0854 33.9063C28.7342 33.9451 28.4217 33.9063 28.2254 33.7501C28.0692 33.5551 27.8342 32.8513 27.6004 31.6401C27.3267 30.3901 26.6629 28.2801 25.4904 25.3113C24.3579 22.3038 23.5367 20.6238 23.1467 20.1938C22.9904 20.0376 22.7554 20.0376 22.4829 20.1938C22.2092 20.3113 21.2329 21.1313 19.6704 22.6551C18.1079 24.2176 16.6629 25.4676 15.2954 26.4438C15.2567 26.6788 15.3742 27.4601 15.5692 28.7488C15.7642 30.0376 15.8429 30.8976 15.8042 31.2101C15.7254 31.5226 15.4129 31.9526 14.9054 32.4601C14.6317 32.7338 14.4367 32.8901 14.2417 32.9288C13.7342 32.4213 12.9529 30.7801 11.8979 28.0851C8.96794 26.7963 7.36669 25.9751 7.05419 25.6626C7.05419 25.5063 7.21044 25.2713 7.48419 24.9988C7.99169 24.4913 8.42169 24.1788 8.77294 24.1388C9.08544 24.0601 9.90544 24.1776 11.1954 24.4126C12.4842 24.6076 13.2654 24.6863 13.5392 24.6863C14.4767 23.2801 16.2342 21.2101 18.9692 18.4751C19.7504 17.6151 19.9854 17.0688 19.7117 16.7951C19.3204 16.3651 17.6017 15.5838 14.6329 14.4513C11.6254 13.3188 9.55419 12.5763 8.30419 12.3413C7.05419 12.0676 6.35044 11.8726 6.19419 11.6776C5.99919 11.5213 5.95919 11.2088 6.03794 10.8176C6.07669 10.4263 6.23294 10.1538 6.42919 9.95755C6.82044 9.5663 8.92919 9.6063 12.7179 10.1526L14.0854 8.7463C14.7104 8.16005 15.2967 8.08255 15.7654 8.5513C16.1954 8.94255 16.1567 9.4113 15.7267 9.84005L15.0229 10.5038L18.3829 10.9726L19.3204 10.0738C20.2579 9.13631 20.9217 8.9413 21.3904 9.41005C21.8204 9.84005 21.7817 10.2701 21.3117 10.7776L21.3129 10.7826Z" fill="#7B00FF"/>
</svg>
